HIERARCHY
ROOT ui
{
	 OFFSET 0 0 0
	 CHANNELS 3 XPosition YPosition Z Position
	 EndSite
	 {
	 OFFSET 0 -1 0
	 }
}
ROOT li
{
	 OFFSET 0 0 0
	 CHANNELS 3 XPosition YPosition Z Position
	 EndSite
	 {
	 OFFSET 0 -1 0
	 }
}
ROOT ul
{
	 OFFSET 0 0 0
	 CHANNELS 3 XPosition YPosition Z Position
	 EndSite
	 {
	 OFFSET 0 -1 0
	 }
}
ROOT ll
{
	 OFFSET 0 0 0
	 CHANNELS 3 XPosition YPosition Z Position
	 EndSite
	 {
	 OFFSET 0 -1 0
	 }
}
ROOT tt
{
	 OFFSET 0 0 0
	 CHANNELS 3 XPosition YPosition Z Position
	 EndSite
	 {
	 OFFSET 0 -1 0
	 }
}
ROOT tb
{
	 OFFSET 0 0 0
	 CHANNELS 3 XPosition YPosition Z Position
	 EndSite
	 {
	 OFFSET 0 -1 0
	 }
}
ROOT td
{
	 OFFSET 0 0 0
	 CHANNELS 3 XPosition YPosition Z Position
	 EndSite
	 {
	 OFFSET 0 -1 0
	 }
}
ROOT v
{
	 OFFSET 0 0 0
	 CHANNELS 3 XPosition YPosition Z Position
	 EndSite
	 {
	 OFFSET 0 -1 0
	 }
}
ROOT bn
{
	 OFFSET 0 0 0
	 CHANNELS 3 XPosition YPosition Z Position
	 EndSite
	 {
	 OFFSET 0 -1 0
	 }
}
MOTION
Frames: 19
Frame Time: 0.002
-0.005887032985687256	-3.034709990024567E-4	0		0.46143988037109374	-2.336435791015625	0		-0.9245947875976562	0.26440203857421873	0		-0.6887915649414063	-2.66183349609375	0		2.0296636962890626	-0.1272018356323242	0		3.6436494140625	0.09728968048095703	0		4.6320810546875	-0.661342529296875	0		5.77246923828125	0.14821949768066406	0		-0.0420406379699707	5.963638671875	0		
-0.0021369469165802	0.0021775550842285155	0		0.47999407958984375	-2.331194091796875	0		-0.84786279296875	0.2630392761230469	0		-0.6962164306640625	-2.65214404296875	0		2.011646484375	-0.10564347839355469	0		3.67389404296875	0.13707017517089845	0		4.63781640625	-0.6553502197265625	0		5.78298974609375	0.1310358123779297	0		-0.007646679878234863	5.96973828125	0		
-0.004470499992370605	-0.001271664023399353	0		0.44460769653320314	-2.321264404296875	0		-0.8471328125	0.262632080078125	0		-0.69171435546875	-2.64861767578125	0		2.051647705078125	-0.08283016204833984	0		3.656703857421875	0.1434617919921875	0		4.63265234375	-0.64120654296875	0		5.77313427734375	0.1631328887939453	0		-0.00834427261352539	5.9712763671875	0		
-0.0037830970287323	-0.0017619550228118897	0		0.5058830261230469	-2.337587646484375	0		-0.851368896484375	0.2662834167480469	0		-0.6872169799804687	-2.64509765625	0		2.03668017578125	-0.05630242156982422	0		3.678545654296875	0.15336314392089845	0		4.644228515625	-0.6462630004882812	0		5.77951123046875	0.13703909301757813	0		-0.025057926177978515	5.97502001953125	0		
-0.003122040033340454	-0.002249208927154541	0		0.45443789672851564	-2.330438720703125	0		-0.9217308959960937	0.26279937744140625	0		-0.6708123779296875	-2.64773486328125	0		2.0454405517578125	-0.04907177352905273	0		3.699427978515625	0.16829383850097657	0		4.62914892578125	-0.6229453125	0		5.79326171875	0.14188037109375	0		-0.006762979984283447	5.9833115234375	0		
5.436959862709045E-4	2.3255699872970582E-4	0		0.4968310852050781	-2.334507568359375	0		-0.9009923095703125	0.26913186645507814	0		-0.6602579345703125	-2.63729150390625	0		2.05231298828125	-0.030798219680786134	0		3.686477783203125	0.19869473266601562	0		4.651841796875	-0.6150926513671875	0		5.77515185546875	0.16017716979980468	0		-0.022751579284667967	5.9750576171875	0		
0.0011281360387802124	-2.3123799264431E-4	0		0.45045281982421875	-2.31838818359375	0		-0.8452595825195313	0.2780075378417969	0		-0.67586083984375	-2.63649267578125	0		2.054053955078125	-0.019433477401733398	0		3.677157958984375	0.20408058166503906	0		4.649630859375	-0.5968746337890625	0		5.78062890625	0.15020559692382812	0		-0.023682809829711913	5.9766220703125	0		
-0.0013769270181655884	-0.003633579969406128	0		0.4737267150878906	-2.32616845703125	0		-0.9108191528320313	0.26950534057617187	0		-0.6755143432617188	-2.636886962890625	0		2.0427081298828127	-0.010863513946533203	0		3.691705810546875	0.20318914794921875	0		4.65825537109375	-0.5877564697265625	0		5.78529345703125	0.15829644775390625	0		0.011355306625366211	5.98172802734375	0		
-0.0027925078868865968	0.0039778540134429935	0		0.47405047607421874	-2.326614501953125	0		-0.8333308715820312	0.26811996459960935	0		-0.6752110595703125	-2.637257080078125	0		2.084234619140625	-0.007962333202362061	0		3.7003564453125	0.21442250061035156	0		4.6488017578125	-0.5803455810546875	0		5.78575439453125	0.1554999237060547	0		0.027386957168579102	5.9931103515625	0		
-4.871709942817688E-4	-0.004428400039672852	0		0.45826971435546876	-2.33080810546875	0		-0.943837890625	0.27328265380859373	0		-0.7328993530273438	-2.632816650390625	0		2.054770751953125	9.334700107574463E-4	0		3.710023681640625	0.2316949005126953	0		4.6634609375	-0.5601983032226563	0		5.7912841796875	0.16270036315917968	0		-0.00591386604309082	5.9871865234375	0		
-0.010915251731872558	0.012379454612731934	0		0.4536576232910156	-2.3181064453125	0		-0.8994310913085938	0.2764015197753906	0		-0.656751708984375	-2.63714111328125	0		2.081231689453125	0.009128056526184081	0		3.70844580078125	0.2361758270263672	0		4.66377099609375	-0.5607969970703125	0		5.795755859375	0.17098410034179687	0		-0.00523908519744873	5.98684765625	0		
-0.010649903297424317	0.012087827682495117	0		0.4517774353027344	-2.320394287109375	0		-0.9042060546875	0.27222323608398435	0		-0.7424641723632812	-2.625235107421875	0		2.081496826171875	0.008729949951171875	0		3.7358828125	0.24732783508300782	0		4.686140625	-0.5516256103515625	0		5.796029296875	0.17039694213867188	0		-0.004669665813446045	5.9865556640625	0		
0.0033428690433502197	-0.0023417809009552	0		0.47475619506835937	-2.327968505859375	0		-0.8329480590820313	0.27605816650390624	0		-0.6725447387695312	-2.636392822265625	0		2.095747802734375	0.013201376914978028	0		3.70025830078125	0.2604017028808594	0		4.67944921875	-0.5409901733398438	0		5.79622119140625	0.16988665771484374	0		-0.0042075982093811035	5.98631494140625	0		
-0.041415287017822267	0.008083683967590332	0		0.447788818359375	-2.325807861328125	0		-0.9478243408203125	0.2774749450683594	0		-0.67458203125	-2.6385244140625	0		2.094986328125	0.022938007354736327	0		3.718287109375	0.2538126983642578	0		4.7126064453125	-0.5358263549804687	0		5.814314453125	0.16820849609375	0		-0.003852963924407959	5.98612744140625	0		
-0.0014670330286026	0.0024057888984680177	0		0.4856065673828125	-2.334476806640625	0		-0.8988118286132812	0.2757083740234375	0		-0.6627465209960938	-2.644794677734375	0		2.10618408203125	0.03557312774658203	0		3.74361572265625	0.2751930847167969	0		4.7108525390625	-0.5181143798828125	0		5.82255908203125	0.18374151611328124	0		0.013518607139587403	5.99476171875	0		
-0.015480083465576172	0.00551966905593872	0		0.4646090087890625	-2.324284423828125	0		-0.893803466796875	0.27959271240234373	0		-0.6567985229492187	-2.6379326171875	0		2.142263427734375	0.04492732620239258	0		3.748843505859375	0.2949146728515625	0		4.7250654296875	-0.49754995727539064	0		5.822509765625	0.1834613494873047	0		-0.0034505980014801025	5.98591748046875	0		
0.016477195739746094	0.011055389404296874	0		0.5063824768066406	-2.326900634765625	0		-0.83385400390625	0.2837710876464844	0		-0.6689335327148438	-2.632771728515625	0		2.12936376953125	0.06101322937011719	0		3.72563623046875	0.2880899658203125	0		4.71397021484375	-0.49457110595703124	0		5.83139208984375	0.1831311798095703	0		-0.00338567590713501	5.98589306640625	0		
-0.028820772171020508	0.0027023680210113525	0		0.4491716003417969	-2.32410302734375	0		-0.915072021484375	0.28093734741210935	0		-0.6712133178710937	-2.634698486328125	0		2.125132080078125	0.05703567504882812	0		3.752642333984375	0.30063897705078124	0		4.7280654296875	-0.4738714904785156	0		5.83121875	0.1829943084716797	0		0.030683074951171875	5.99145068359375	0		
0.025840269088745118	-0.00598170280456543	0		0.47383248901367186	-2.328385498046875	0		-0.8382957153320313	0.2799710693359375	0		-0.673530029296875	-2.63658056640625	0		2.12896484375	0.06100040817260742	0		3.774410400390625	0.2993150634765625	0		4.727830078125	-0.47391629028320315	0		5.83510986328125	0.19086595153808594	0		-0.036563453674316404	5.97944970703125	0		
